# xmcd CD database file
#
# Track frame offsets:
#	150
#	21865
#	41787
#
# Disc length: 844 seconds
#
# Revision: 0
# Processed by: cddbd v1.5.1PL2 Copyright (c) Steve Scherf et al.
# Submitted via: CDex 1.51
#
DISCID=1f034a03
DTITLE=井上陽水 - 新しいラプソディー〜サッポロ（生）黒ラベルＣＭソング〜
DYEAR=1900
DGENRE=JPop
TTITLE0=新しいラプソディー
TTITLE1=ダメなメロン
TTITLE2=新しいラプソディー（オリジナル・カラオケ）
EXTD=
EXTT0=
EXTT1=
EXTT2=
PLAYORDER=
